<?xml version="1.0" encoding="UTF-8"?>
<svg version="1.1" xmlns="http://www.w3.org/2000/svg" width="55" height="55">
<path d="M0 0 C1.53140625 -0.08121094 1.53140625 -0.08121094 3.09375 -0.1640625 C8.66102707 -0.26424486 12.08222233 0.06336418 16.37109375 3.79296875 C17.56242122 5.00614133 18.73376113 6.23959424 19.875 7.5 C20.62652344 8.20769531 21.37804688 8.91539063 22.15234375 9.64453125 C22.70019531 10.19496094 23.24804688 10.74539062 23.8125 11.3125 C24.37839844 11.87582031 24.94429687 12.43914063 25.52734375 13.01953125 C27.40542965 15.08270388 27.86250264 16.42681629 28.3359375 19.19921875 C27.66074528 24.03428165 24.98418662 26.08925985 21.5 29.3125 C20.89671875 29.89708984 20.2934375 30.48167969 19.671875 31.08398438 C13.08360142 37.40140671 7.42208207 37.33791434 -1.58618164 37.5925293 C-8.63983162 37.41838459 -12.91233835 36.20931728 -18.12426758 31.37695312 C-27.27611792 21.62912008 -27.27611792 21.62912008 -27.125 16.5 C-25.9375 14.5078125 -25.9375 14.5078125 -24.125 12.625 C-23.48175781 11.94566406 -22.83851562 11.26632813 -22.17578125 10.56640625 C-21.49902344 9.88449219 -20.82226562 9.20257813 -20.125 8.5 C-19.47917969 7.82839844 -18.83335938 7.15679687 -18.16796875 6.46484375 C-12.16218362 0.30733352 -8.53031419 0.18956254 0 0 Z " fill="#E0DFE3" transform="translate(27.125,9.5)"/>
<path d="M0 0 C3.67596063 2.96904513 7.21082845 6.04230184 10.4375 9.5 C10.93121094 10.0259375 11.42492188 10.551875 11.93359375 11.09375 C13.57679045 14.03103934 13.57909491 15.67526629 13 19 C11.16382293 21.58436021 8.94619464 23.6651501 6.625 25.8125 C6.02171875 26.39708984 5.4184375 26.98167969 4.796875 27.58398438 C0.56210242 31.64466075 -1.42069563 33.12936476 -7.4453125 33.09765625 C-9.05986328 33.09282227 -9.05986328 33.09282227 -10.70703125 33.08789062 C-11.83496094 33.07951172 -12.96289062 33.07113281 -14.125 33.0625 C-15.26066406 33.05798828 -16.39632813 33.05347656 -17.56640625 33.04882812 C-20.37765638 33.03701615 -23.1888023 33.02054507 -26 33 C-26 32.34 -26 31.68 -26 31 C-18.08 31 -10.16 31 -2 31 C-2 30.01 -2 29.02 -2 28 C-2.78375 27.87625 -3.5675 27.7525 -4.375 27.625 C-7 27 -7 27 -9 25 C-8.6700572 21.60229115 -7.1807479 19.7318913 -4.9375 17.25 C-4.11572266 16.32960938 -4.11572266 16.32960938 -3.27734375 15.390625 C-2.85582031 14.93171875 -2.43429688 14.4728125 -2 14 C-2.51691406 13.54109375 -3.03382812 13.0821875 -3.56640625 12.609375 C-4.22511719 11.99578125 -4.88382813 11.3821875 -5.5625 10.75 C-6.22378906 10.14671875 -6.88507812 9.5434375 -7.56640625 8.921875 C-9 7 -9 7 -8.83984375 4.890625 C-8 3 -8 3 -6 1 C-5.01 1 -4.02 1 -3 1 C-2.67 1.66 -2.34 2.32 -2 3 C-1.01 3.33 -0.02 3.66 1 4 C0.67 2.68 0.34 1.36 0 0 Z " fill="#575C8D" transform="translate(42,13)"/>
<path d="M0 0 C3.74883721 1.45116279 3.74883721 1.45116279 4.84375 3.84375 C5 6 5 6 3.56640625 7.921875 C2.90511719 8.52515625 2.24382813 9.1284375 1.5625 9.75 C0.57443359 10.67039062 0.57443359 10.67039062 -0.43359375 11.609375 C-0.95050781 12.06828125 -1.46742187 12.5271875 -2 13 C-1.57847656 13.45890625 -1.15695312 13.9178125 -0.72265625 14.390625 C-0.17480469 15.00421875 0.37304688 15.6178125 0.9375 16.25 C1.48277344 16.85328125 2.02804688 17.4565625 2.58984375 18.078125 C4.08226466 20.11211693 4.70857182 21.5020442 5 24 C3.5625 25.75 3.5625 25.75 2 27 C-1.65141356 25.4744094 -3.90118112 23.27519091 -6.625 20.4375 C-9.51070681 17.30957946 -9.51070681 17.30957946 -13 15 C-13 12 -13 12 -11.42578125 10.3515625 C-10.72839844 9.78179687 -10.03101563 9.21203125 -9.3125 8.625 C-6.03135631 5.88002899 -2.97663714 3.06965705 0 0 Z " fill="#525587" transform="translate(17,14)"/>
<path d="M0 0 C3.67596063 2.96904513 7.21082845 6.04230184 10.4375 9.5 C10.93121094 10.0259375 11.42492188 10.551875 11.93359375 11.09375 C13.57679045 14.03103934 13.57909491 15.67526629 13 19 C11.16382293 21.58436021 8.94619464 23.6651501 6.625 25.8125 C6.02171875 26.39708984 5.4184375 26.98167969 4.796875 27.58398438 C0.56210242 31.64466075 -1.42069563 33.12936476 -7.4453125 33.09765625 C-9.05986328 33.09282227 -9.05986328 33.09282227 -10.70703125 33.08789062 C-11.83496094 33.07951172 -12.96289062 33.07113281 -14.125 33.0625 C-15.26066406 33.05798828 -16.39632813 33.05347656 -17.56640625 33.04882812 C-20.37765638 33.03701615 -23.1888023 33.02054507 -26 33 C-26 32.34 -26 31.68 -26 31 C-18.08 31 -10.16 31 -2 31 C-2.495 28.525 -2.495 28.525 -3 26 C-1.23526782 23.78736625 0.36726972 22.06247277 2.4375 20.1875 C3.23124023 19.43436523 3.23124023 19.43436523 4.04101562 18.66601562 C5.34760964 17.43004832 6.67216063 16.21311405 8 15 C7.60167969 14.54109375 7.20335937 14.0821875 6.79296875 13.609375 C4.08857938 10.47728415 1.42008229 7.36122541 -1 4 C-0.34 4 0.32 4 1 4 C0.67 2.68 0.34 1.36 0 0 Z " fill="#CECDD2" transform="translate(42,13)"/>
<path d="M0 0 C0.33 0.99 0.66 1.98 1 3 C0.48308594 3.45890625 -0.03382812 3.9178125 -0.56640625 4.390625 C-1.22511719 5.00421875 -1.88382813 5.6178125 -2.5625 6.25 C-3.22378906 6.85328125 -3.88507812 7.4565625 -4.56640625 8.078125 C-6.22176503 9.87350433 -6.22176503 9.87350433 -5.90625 12.0390625 C-4.8764122 14.26741842 -3.75374738 15.48479551 -1.9375 17.125 C-0.27734375 18.6328125 -0.27734375 18.6328125 1 20 C1 20.66 1 21.32 1 22 C0.01 22.33 -0.98 22.66 -2 23 C-5.63 19.37 -9.26 15.74 -13 12 C-2.88235294 -0 -2.88235294 -0 0 0 Z " fill="#6CB5F4" transform="translate(19,16)"/>
<path d="M0 0 C4.08479098 0.35244878 6.01262449 2.70435793 8.75 5.5625 C9.94882812 6.80193359 9.94882812 6.80193359 11.171875 8.06640625 C11.77515625 8.70449219 12.3784375 9.34257812 13 10 C9.49925018 14.17443363 6.02049157 18.3145494 2 22 C1.34 22 0.68 22 0 22 C-0.33 21.01 -0.66 20.02 -1 19 C-0.48308594 18.54109375 0.03382812 18.0821875 0.56640625 17.609375 C1.55447266 16.68898438 1.55447266 16.68898438 2.5625 15.75 C3.22378906 15.14671875 3.88507812 14.5434375 4.56640625 13.921875 C6.21823425 12.13169195 6.21823425 12.13169195 5.90625 10 C4.86586247 7.70397236 3.62623745 6.11839037 1.9375 4.25 C1.38964844 3.63640625 0.84179688 3.0228125 0.27734375 2.390625 C-0.14417969 1.93171875 -0.56570312 1.4728125 -1 1 C-0.67 0.67 -0.34 0.34 0 0 Z " fill="#6CB6F5" transform="translate(36,17)"/>
<path d="M0 0 C0.33 0 0.66 0 1 0 C1.46486627 3.00340072 1.60136978 5.13952152 -0.18652344 7.69775391 C-1.85430365 9.48099583 -3.58275738 11.15448652 -5.375 12.8125 C-5.97828125 13.39708984 -6.5815625 13.98167969 -7.203125 14.58398438 C-11.43789758 18.64466075 -13.42069563 20.12936476 -19.4453125 20.09765625 C-21.05986328 20.09282227 -21.05986328 20.09282227 -22.70703125 20.08789062 C-23.83496094 20.07951172 -24.96289062 20.07113281 -26.125 20.0625 C-27.26066406 20.05798828 -28.39632813 20.05347656 -29.56640625 20.04882812 C-32.37765638 20.03701615 -35.1888023 20.02054507 -38 20 C-38 19.34 -38 18.68 -38 18 C-37.34104736 18.03778564 -36.68209473 18.07557129 -36.00317383 18.11450195 C-22.06418842 19.1337178 -22.06418842 19.1337178 -9.546875 14.1796875 C-5.21213852 10.15403959 -1.21596074 5.93334121 0 0 Z " fill="#191919" transform="translate(54,26)"/>
<path d="M0 0 C1.1055189 0.93590504 2.20935453 1.87379858 3.3125 2.8125 C3.92738281 3.33457031 4.54226562 3.85664063 5.17578125 4.39453125 C5.77777344 4.92433594 6.37976562 5.45414063 7 6 C7.556875 6.4846875 8.11375 6.969375 8.6875 7.46875 C10.82742691 9.9653314 10.70010397 12.82110212 11 16 C10.67 15.34 10.34 14.68 10 14 C9.09507813 13.55527344 9.09507813 13.55527344 8.171875 13.1015625 C5.69670883 11.84617247 4.16968804 10.36852219 2.25 8.375 C1.63640625 7.74335938 1.0228125 7.11171875 0.390625 6.4609375 C-0.29773437 5.73777344 -0.29773437 5.73777344 -1 5 C-0.34 4.67 0.32 4.34 1 4 C0.67 2.68 0.34 1.36 0 0 Z " fill="#DADADD" transform="translate(42,13)"/>
<path d="M0 0 C0.99 0.33 1.98 0.66 3 1 C0.69 3.31 -1.62 5.62 -4 8 C-3.030625 9.0725 -2.06125 10.145 -1.0625 11.25 C1.23256811 13.7892243 2.40716379 15.60807637 3 19 C2.01 19.66 1.02 20.32 0 21 C-0.33 20.34 -0.66 19.68 -1 19 C-0.34 19 0.32 19 1 19 C0.50628906 18.46890625 0.01257813 17.9378125 -0.49609375 17.390625 C-1.13675781 16.68421875 -1.77742188 15.9778125 -2.4375 15.25 C-3.07558594 14.55390625 -3.71367187 13.8578125 -4.37109375 13.140625 C-6.03909858 10.94861865 -6.912537 9.75508451 -7 7 C-5.56640625 5.078125 -5.56640625 5.078125 -3.5625 3.25 C-2.90378906 2.63640625 -2.24507812 2.0228125 -1.56640625 1.390625 C-1.04949219 0.93171875 -0.53257813 0.4728125 0 0 Z " fill="#5C6393" transform="translate(19,19)"/>
<path d="M0 0 C1.98 1.65 3.96 3.3 6 5 C5.01 5.495 5.01 5.495 4 6 C3.67 6.99 3.34 7.98 3 9 C1.29115995 7.37660195 -0.37446717 5.70680947 -2 4 C-2 3.34 -2 2.68 -2 2 C-1.34 2 -0.68 2 0 2 C0 1.34 0 0.68 0 0 Z " fill="#D2D1D5" transform="translate(9,33)"/>
<path d="M0 0 C0.66 0.33 1.32 0.66 2 1 C2.3125 3.75 2.3125 3.75 2 7 C-0.5 9.375 -0.5 9.375 -3 11 C-3.33 9.68 -3.66 8.36 -4 7 C-3.34 6.5875 -2.68 6.175 -2 5.75 C-1.34 5.1725 -0.68 4.595 0 4 C0 2.68 0 1.36 0 0 Z " fill="#C7C7CA" transform="translate(52,23)"/>
<path d="M0 0 C1.98 1.65 3.96 3.3 6 5 C5.01 5.33 4.02 5.66 3 6 C2.67 6.66 2.34 7.32 2 8 C1.01 6.68 0.02 5.36 -1 4 C-0.34 4 0.32 4 1 4 C0.67 2.68 0.34 1.36 0 0 Z " fill="#CDCDD1" transform="translate(42,13)"/>
<path d="M0 0 C1.42944945 2.35438733 2.08661261 3.48032433 1.625 6.25 C1.41875 6.8275 1.2125 7.405 1 8 C-0.5625 6.75 -0.5625 6.75 -2 5 C-1.74853421 2.86254078 -1.54074221 1.54074221 0 0 Z " fill="#ECECED" transform="translate(18,25)"/>
</svg>
