<?xml version="1.0" encoding="UTF-8"?>
<svg version="1.1" xmlns="http://www.w3.org/2000/svg" width="55" height="55">
<path d="M0 0 C0.93106567 -0.00945648 1.86213135 -0.01891296 2.82141113 -0.02865601 C4.32617004 -0.01954697 4.32617004 -0.01954697 5.86132812 -0.01025391 C7.4091095 -0.01455917 7.4091095 -0.01455917 8.98815918 -0.01895142 C11.17033436 -0.02099342 13.35252778 -0.01545411 15.53466797 -0.00292969 C18.87964713 0.01312154 22.22341791 -0.00277432 25.56835938 -0.02197266 C27.68685163 -0.01999025 29.80534314 -0.01614663 31.92382812 -0.01025391 C32.92700073 -0.0163266 33.93017334 -0.02239929 34.96374512 -0.02865601 C36.36034363 -0.01447128 36.36034363 -0.01447128 37.78515625 0 C38.60439575 0.00238678 39.42363525 0.00477356 40.2677002 0.00723267 C42.95799896 0.48955299 43.82977814 1.15869285 45.39257812 3.38818359 C45.77352905 5.51306152 45.77352905 5.51306152 45.78076172 7.99560547 C45.7902182 8.92667114 45.79967468 9.85773682 45.80941772 10.8170166 C45.80334503 11.82018921 45.79727234 12.82336182 45.79101562 13.85693359 C45.7938858 14.88878784 45.79675598 15.92064209 45.79971313 16.98376465 C45.80175513 19.16593982 45.79621583 21.34813325 45.78369141 23.53027344 C45.76764018 26.8752526 45.78353604 30.21902338 45.80273438 33.56396484 C45.80075197 35.6824571 45.79690835 37.8009486 45.79101562 39.91943359 C45.80012466 41.4241925 45.80012466 41.4241925 45.80941772 42.95935059 C45.79996124 43.89041626 45.79050476 44.82148193 45.78076172 45.78076172 C45.77837494 46.60000122 45.77598816 47.41924072 45.77352905 48.26330566 C45.29120873 50.95360443 44.62206887 51.82538361 42.39257812 53.38818359 C40.2677002 53.76913452 40.2677002 53.76913452 37.78515625 53.77636719 C36.85409058 53.78582367 35.9230249 53.79528015 34.96374512 53.80502319 C33.96057251 53.7989505 32.9573999 53.79287781 31.92382812 53.78662109 C30.37604675 53.79092636 30.37604675 53.79092636 28.79699707 53.7953186 C26.61482189 53.7973606 24.43262847 53.7918213 22.25048828 53.77929688 C18.90550912 53.76324564 15.56173834 53.7791415 12.21679688 53.79833984 C10.09830462 53.79635744 7.97981311 53.79251382 5.86132812 53.78662109 C4.35656921 53.79573013 4.35656921 53.79573013 2.82141113 53.80502319 C1.89034546 53.79556671 0.95927979 53.78611023 0 53.77636719 C-1.22885925 53.77278702 -1.22885925 53.77278702 -2.48254395 53.76913452 C-5.17284271 53.2868142 -6.04462189 52.61767433 -7.60742188 50.38818359 C-7.9883728 48.26330566 -7.9883728 48.26330566 -7.99560547 45.78076172 C-8.00506195 44.84969604 -8.01451843 43.91863037 -8.02426147 42.95935059 C-8.01818878 41.95617798 -8.01211609 40.95300537 -8.00585938 39.91943359 C-8.00872955 38.88757935 -8.01159973 37.8557251 -8.01455688 36.79260254 C-8.01659888 34.61042736 -8.01105958 32.42823394 -7.99853516 30.24609375 C-7.98248393 26.90111459 -7.99837979 23.55734381 -8.01757812 20.21240234 C-8.01559572 18.09391009 -8.0117521 15.97541858 -8.00585938 13.85693359 C-8.01193207 12.85376099 -8.01800476 11.85058838 -8.02426147 10.8170166 C-8.01480499 9.88595093 -8.00534851 8.95488525 -7.99560547 7.99560547 C-7.99321869 7.17636597 -7.99083191 6.35712646 -7.9883728 5.51306152 C-7.15011294 0.83739398 -4.372352 0.01273845 0 0 Z " fill="#D5D5DC" transform="translate(8.607421875,0.61181640625)"/>
<path d="M0 0 C2.64 0 5.28 0 8 0 C8 3.3 8 6.6 8 10 C8.71285156 9.9278125 9.42570312 9.855625 10.16015625 9.78125 C24.40396635 8.40096154 24.40396635 8.40096154 31 10 C31 6.7 31 3.4 31 0 C33.64 0 36.28 0 39 0 C39 7.92 39 15.84 39 24 C37.35 24 35.7 24 34 24 C34 25.65 34 27.3 34 29 C32.35 29 30.7 29 29 29 C29 30.65 29 32.3 29 34 C23.06 34 17.12 34 11 34 C11 32.35 11 30.7 11 29 C9.02 29 7.04 29 5 29 C5 27.35 5 25.7 5 24 C3.35 24 1.7 24 0 24 C0 16.08 0 8.16 0 0 Z " fill="#75738A" transform="translate(8,10)"/>
<path d="M0 0 C2.64 0 5.28 0 8 0 C8 3.3 8 6.6 8 10 C8.71285156 9.9278125 9.42570312 9.855625 10.16015625 9.78125 C24.40396635 8.40096154 24.40396635 8.40096154 31 10 C31 6.7 31 3.4 31 0 C33.64 0 36.28 0 39 0 C39 7.92 39 15.84 39 24 C37.02 24 35.04 24 33 24 C32.67 25.32 32.34 26.64 32 28 C32 26.35 32 24.7 32 23 C33.65 23 35.3 23 37 23 C37 15.74 37 8.48 37 1 C35.35 1 33.7 1 32 1 C32 4.3 32 7.6 32 11 C23.75 11 15.5 11 7 11 C7 7.7 7 4.4 7 1 C6.01 1 5.02 1 4 1 C4 8.26 4 15.52 4 23 C5.65 23.33 7.3 23.66 9 24 C9 24.99 9 25.98 9 27 C11.475 27.99 11.475 27.99 14 29 C14 29.99 14 30.98 14 32 C18.29 32 22.58 32 27 32 C27.33 30.68 27.66 29.36 28 28 C28 29.65 28 31.3 28 33 C22.39 33 16.78 33 11 33 C11 31.68 11 30.36 11 29 C9.02 29 7.04 29 5 29 C5 27.35 5 25.7 5 24 C3.35 24 1.7 24 0 24 C0 16.08 0 8.16 0 0 Z " fill="#64657E" transform="translate(8,10)"/>
<path d="M0 0 C7.59 0 15.18 0 23 0 C23 3.3 23 6.6 23 10 C15.41 10 7.82 10 0 10 C0 6.7 0 3.4 0 0 Z " fill="#776F78" transform="translate(16,10)"/>
<path d="M0 0 C3 2 3 2 3.38768005 3.88400269 C3.39308304 4.64915192 3.39848602 5.41430115 3.40405273 6.20263672 C3.41673691 7.07048798 3.42942108 7.93833923 3.44248962 8.83248901 C3.43955399 9.77206451 3.43661835 10.71164001 3.43359375 11.6796875 C3.4388356 12.64399689 3.44407745 13.60830627 3.44947815 14.60183716 C3.45590967 16.64454179 3.4545468 18.6872834 3.44604492 20.72998047 C3.43755212 23.85581606 3.46625304 26.97981471 3.49804688 30.10546875 C3.49965936 32.08854112 3.49908046 34.07161673 3.49609375 36.0546875 C3.51294472 37.45797806 3.51294472 37.45797806 3.53013611 38.88961792 C3.489807 42.64764997 3.39964176 45.26127037 1.5949707 48.59716797 C-2.50610621 50.81419572 -6.43023486 50.49114094 -11.015625 50.390625 C-11.98659119 50.38496521 -12.95755737 50.37930542 -13.95794678 50.37347412 C-17.05580169 50.35110311 -20.15249533 50.30090473 -23.25 50.25 C-25.35154578 50.22993597 -27.45310972 50.21168503 -29.5546875 50.1953125 C-34.7035717 50.1512358 -39.85158903 50.08220258 -45 50 C-45.33 49.34 -45.66 48.68 -46 48 C-45.43845718 47.98969254 -44.87691437 47.97938507 -44.2983551 47.96876526 C-38.47506534 47.86092315 -32.65193736 47.74630792 -26.82885742 47.62768555 C-24.65311047 47.58426493 -22.47732786 47.54259529 -20.30151367 47.50268555 C-17.18136832 47.44515498 -14.06140367 47.38141177 -10.94140625 47.31640625 C-9.96224747 47.29969376 -8.98308868 47.28298126 -7.97425842 47.26576233 C-7.07340012 47.24581711 -6.17254181 47.22587189 -5.24438477 47.20532227 C-4.04858543 47.18200584 -4.04858543 47.18200584 -2.82862854 47.15821838 C-0.98148618 47.19599335 -0.98148618 47.19599335 0 46 C0.09295815 44.55710213 0.11746513 43.10970215 0.11352539 41.66381836 C0.11344986 40.7429393 0.11337433 39.82206024 0.11329651 38.87327576 C0.10813522 37.87224319 0.10297394 36.87121063 0.09765625 35.83984375 C0.09553383 34.31043907 0.09553383 34.31043907 0.09336853 32.75013733 C0.08775097 29.47922893 0.0751955 26.20838787 0.0625 22.9375 C0.05748726 20.72591244 0.05292396 18.51432382 0.04882812 16.30273438 C0.03777584 10.86846643 0.02102063 5.43423803 0 0 Z " fill="#CCCCD6" transform="translate(50,3)"/>
<path d="M0 0 C2.4375 0.1875 2.4375 0.1875 3.4375 1.1875 C3.625 3.625 3.625 3.625 3.4375 6.1875 C2.7775 6.8475 2.1175 7.5075 1.4375 8.1875 C-1.1875 7.8125 -1.1875 7.8125 -3.5625 7.1875 C-4.1875 4.8125 -4.1875 4.8125 -4.5625 2.1875 C-2.5625 0.1875 -2.5625 0.1875 0 0 Z " fill="#728284" transform="translate(10.5625,40.8125)"/>
<path d="M0 0 C2.5625 0.1875 2.5625 0.1875 4.5625 2.1875 C4.20894564 4.45024788 3.58705574 6.13838852 2.5625 8.1875 C-2.3125 7.3125 -2.3125 7.3125 -3.4375 6.1875 C-3.5625 3.6875 -3.5625 3.6875 -3.4375 1.1875 C-2.4375 0.1875 -2.4375 0.1875 0 0 Z " fill="#B2924E" transform="translate(44.4375,40.8125)"/>
<path d="M0 0 C1.65 0 3.3 0 5 0 C5 2.97 5 5.94 5 9 C3.35 9 1.7 9 0 9 C0 6.03 0 3.06 0 0 Z " fill="#E6C292" transform="translate(34,11)"/>
<path d="M0 0 C1.65 0 3.3 0 5 0 C5 2.97 5 5.94 5 9 C3.35 9 1.7 9 0 9 C0 6.03 0 3.06 0 0 Z " fill="#E9C492" transform="translate(28,11)"/>
<path d="M0 0 C1.65 0 3.3 0 5 0 C5 2.97 5 5.94 5 9 C3.35 9 1.7 9 0 9 C0 6.03 0 3.06 0 0 Z " fill="#E7C392" transform="translate(22,11)"/>
<path d="M0 0 C1.65 0 3.3 0 5 0 C5 2.97 5 5.94 5 9 C3.35 9 1.7 9 0 9 C0 6.03 0 3.06 0 0 Z " fill="#E6C392" transform="translate(16,11)"/>
<path d="M0 0 C0.99 0.33 1.98 0.66 3 1 C3 1.99 3 2.98 3 4 C7.29 4 11.58 4 16 4 C16.33 2.68 16.66 1.36 17 0 C17 1.65 17 3.3 17 5 C11.39 5 5.78 5 0 5 C0 3.35 0 1.7 0 0 Z " fill="#5E5E78" transform="translate(19,38)"/>
<path d="M0 0 C1.98 0.495 1.98 0.495 4 1 C4 2.32 4 3.64 4 5 C2.35 5 0.7 5 -1 5 C-0.67 3.35 -0.34 1.7 0 0 Z " fill="#46BA3D" transform="translate(9,42)"/>
</svg>
