<?xml version="1.0" encoding="UTF-8"?>
<svg version="1.1" xmlns="http://www.w3.org/2000/svg" width="55" height="55">
<path d="M0 0 C0.93106567 -0.00945648 1.86213135 -0.01891296 2.82141113 -0.02865601 C4.32617004 -0.01954697 4.32617004 -0.01954697 5.86132812 -0.01025391 C7.4091095 -0.01455917 7.4091095 -0.01455917 8.98815918 -0.01895142 C11.17033436 -0.02099342 13.35252778 -0.01545411 15.53466797 -0.00292969 C18.87964713 0.01312154 22.22341791 -0.00277432 25.56835938 -0.02197266 C27.68685163 -0.01999025 29.80534314 -0.01614663 31.92382812 -0.01025391 C32.92700073 -0.0163266 33.93017334 -0.02239929 34.96374512 -0.02865601 C36.36034363 -0.01447128 36.36034363 -0.01447128 37.78515625 0 C38.60439575 0.00238678 39.42363525 0.00477356 40.2677002 0.00723267 C42.95799896 0.48955299 43.82977814 1.15869285 45.39257812 3.38818359 C45.77352905 5.51306152 45.77352905 5.51306152 45.78076172 7.99560547 C45.7902182 8.92667114 45.79967468 9.85773682 45.80941772 10.8170166 C45.80334503 11.82018921 45.79727234 12.82336182 45.79101562 13.85693359 C45.7938858 14.88878784 45.79675598 15.92064209 45.79971313 16.98376465 C45.80175513 19.16593982 45.79621583 21.34813325 45.78369141 23.53027344 C45.76764018 26.8752526 45.78353604 30.21902338 45.80273438 33.56396484 C45.80075197 35.6824571 45.79690835 37.8009486 45.79101562 39.91943359 C45.80012466 41.4241925 45.80012466 41.4241925 45.80941772 42.95935059 C45.79996124 43.89041626 45.79050476 44.82148193 45.78076172 45.78076172 C45.77837494 46.60000122 45.77598816 47.41924072 45.77352905 48.26330566 C45.29120873 50.95360443 44.62206887 51.82538361 42.39257812 53.38818359 C40.2677002 53.76913452 40.2677002 53.76913452 37.78515625 53.77636719 C36.85409058 53.78582367 35.9230249 53.79528015 34.96374512 53.80502319 C33.96057251 53.7989505 32.9573999 53.79287781 31.92382812 53.78662109 C30.37604675 53.79092636 30.37604675 53.79092636 28.79699707 53.7953186 C26.61482189 53.7973606 24.43262847 53.7918213 22.25048828 53.77929688 C18.90550912 53.76324564 15.56173834 53.7791415 12.21679688 53.79833984 C10.09830462 53.79635744 7.97981311 53.79251382 5.86132812 53.78662109 C4.35656921 53.79573013 4.35656921 53.79573013 2.82141113 53.80502319 C1.89034546 53.79556671 0.95927979 53.78611023 0 53.77636719 C-1.22885925 53.77278702 -1.22885925 53.77278702 -2.48254395 53.76913452 C-5.17284271 53.2868142 -6.04462189 52.61767433 -7.60742188 50.38818359 C-7.9883728 48.26330566 -7.9883728 48.26330566 -7.99560547 45.78076172 C-8.00506195 44.84969604 -8.01451843 43.91863037 -8.02426147 42.95935059 C-8.01818878 41.95617798 -8.01211609 40.95300537 -8.00585938 39.91943359 C-8.00872955 38.88757935 -8.01159973 37.8557251 -8.01455688 36.79260254 C-8.01659888 34.61042736 -8.01105958 32.42823394 -7.99853516 30.24609375 C-7.98248393 26.90111459 -7.99837979 23.55734381 -8.01757812 20.21240234 C-8.01559572 18.09391009 -8.0117521 15.97541858 -8.00585938 13.85693359 C-8.01193207 12.85376099 -8.01800476 11.85058838 -8.02426147 10.8170166 C-8.01480499 9.88595093 -8.00534851 8.95488525 -7.99560547 7.99560547 C-7.99321869 7.17636597 -7.99083191 6.35712646 -7.9883728 5.51306152 C-7.15011294 0.83739398 -4.372352 0.01273845 0 0 Z " fill="#F9F9FB" transform="translate(8.607421875,0.61181640625)"/>
<path d="M0 0 C2.64 0 5.28 0 8 0 C8 3.3 8 6.6 8 10 C9.65 10 11.3 10 13 10 C13 6.7 13 3.4 13 0 C15.31 0 17.62 0 20 0 C20 3.3 20 6.6 20 10 C21.32 9.67 22.64 9.34 24 9 C24.33 6.03 24.66 3.06 25 0 C25.33 0 25.66 0 26 0 C26 3.3 26 6.6 26 10 C27.65 10 29.3 10 31 10 C31 6.7 31 3.4 31 0 C33.64 0 36.28 0 39 0 C39 7.92 39 15.84 39 24 C37.35 24 35.7 24 34 24 C34 25.65 34 27.3 34 29 C32.02 29 30.04 29 28 29 C28 30.65 28 32.3 28 34 C22.39 34 16.78 34 11 34 C11 32.35 11 30.7 11 29 C9.02 29 7.04 29 5 29 C5 27.35 5 25.7 5 24 C3.35 24 1.7 24 0 24 C0 16.08 0 8.16 0 0 Z " fill="#737188" transform="translate(8,10)"/>
<path d="M0 0 C0.93106567 -0.00945648 1.86213135 -0.01891296 2.82141113 -0.02865601 C4.32617004 -0.01954697 4.32617004 -0.01954697 5.86132812 -0.01025391 C7.4091095 -0.01455917 7.4091095 -0.01455917 8.98815918 -0.01895142 C11.17033436 -0.02099342 13.35252778 -0.01545411 15.53466797 -0.00292969 C18.87964713 0.01312154 22.22341791 -0.00277432 25.56835938 -0.02197266 C27.68685163 -0.01999025 29.80534314 -0.01614663 31.92382812 -0.01025391 C32.92700073 -0.0163266 33.93017334 -0.02239929 34.96374512 -0.02865601 C36.36034363 -0.01447128 36.36034363 -0.01447128 37.78515625 0 C38.60439575 0.00238678 39.42363525 0.00477356 40.2677002 0.00723267 C42.95799896 0.48955299 43.82977814 1.15869285 45.39257812 3.38818359 C45.77352905 5.51306152 45.77352905 5.51306152 45.78076172 7.99560547 C45.7902182 8.92667114 45.79967468 9.85773682 45.80941772 10.8170166 C45.80334503 11.82018921 45.79727234 12.82336182 45.79101562 13.85693359 C45.7938858 14.88878784 45.79675598 15.92064209 45.79971313 16.98376465 C45.80175513 19.16593982 45.79621583 21.34813325 45.78369141 23.53027344 C45.76764018 26.8752526 45.78353604 30.21902338 45.80273438 33.56396484 C45.80075197 35.6824571 45.79690835 37.8009486 45.79101562 39.91943359 C45.80012466 41.4241925 45.80012466 41.4241925 45.80941772 42.95935059 C45.79996124 43.89041626 45.79050476 44.82148193 45.78076172 45.78076172 C45.77837494 46.60000122 45.77598816 47.41924072 45.77352905 48.26330566 C45.29120873 50.95360443 44.62206887 51.82538361 42.39257812 53.38818359 C40.2677002 53.76913452 40.2677002 53.76913452 37.78515625 53.77636719 C36.85409058 53.78582367 35.9230249 53.79528015 34.96374512 53.80502319 C33.96057251 53.7989505 32.9573999 53.79287781 31.92382812 53.78662109 C30.37604675 53.79092636 30.37604675 53.79092636 28.79699707 53.7953186 C26.61482189 53.7973606 24.43262847 53.7918213 22.25048828 53.77929688 C18.90550912 53.76324564 15.56173834 53.7791415 12.21679688 53.79833984 C10.09830462 53.79635744 7.97981311 53.79251382 5.86132812 53.78662109 C4.35656921 53.79573013 4.35656921 53.79573013 2.82141113 53.80502319 C1.89034546 53.79556671 0.95927979 53.78611023 0 53.77636719 C-1.22885925 53.77278702 -1.22885925 53.77278702 -2.48254395 53.76913452 C-5.17284271 53.2868142 -6.04462189 52.61767433 -7.60742188 50.38818359 C-7.9883728 48.26330566 -7.9883728 48.26330566 -7.99560547 45.78076172 C-8.00506195 44.84969604 -8.01451843 43.91863037 -8.02426147 42.95935059 C-8.01818878 41.95617798 -8.01211609 40.95300537 -8.00585938 39.91943359 C-8.00872955 38.88757935 -8.01159973 37.8557251 -8.01455688 36.79260254 C-8.01659888 34.61042736 -8.01105958 32.42823394 -7.99853516 30.24609375 C-7.98248393 26.90111459 -7.99837979 23.55734381 -8.01757812 20.21240234 C-8.01559572 18.09391009 -8.0117521 15.97541858 -8.00585938 13.85693359 C-8.01193207 12.85376099 -8.01800476 11.85058838 -8.02426147 10.8170166 C-8.01480499 9.88595093 -8.00534851 8.95488525 -7.99560547 7.99560547 C-7.99321869 7.17636597 -7.99083191 6.35712646 -7.9883728 5.51306152 C-7.15011294 0.83739398 -4.372352 0.01273845 0 0 Z M-5.60742188 3.38818359 C-5.65801577 9.90263564 -5.69311044 16.41703727 -5.71728516 22.93164062 C-5.72736012 25.1491078 -5.74102047 27.36656164 -5.75830078 29.58398438 C-5.78248351 32.76614671 -5.79388984 35.94813384 -5.80273438 39.13037109 C-5.81305695 40.12624237 -5.82337952 41.12211365 -5.83401489 42.14816284 C-5.83416595 43.06896637 -5.83431702 43.9897699 -5.83447266 44.93847656 C-5.83891388 45.7512204 -5.8433551 46.56396423 -5.84793091 47.40133667 C-5.78663308 49.62031035 -5.78663308 49.62031035 -3.60742188 51.38818359 C-1.60226066 51.69333623 -1.60226066 51.69333623 0.71875 51.64697266 C1.61307739 51.65327698 2.50740479 51.6595813 3.42883301 51.66607666 C4.88041809 51.66000397 4.88041809 51.66000397 6.36132812 51.65380859 C7.84820129 51.65667877 7.84820129 51.65667877 9.3651123 51.65960693 C11.4633001 51.66096945 13.56149631 51.65726841 15.65966797 51.64892578 C18.87942358 51.6382273 22.09862121 51.64881895 25.31835938 51.66162109 C27.35351686 51.66029951 29.388674 51.65773714 31.42382812 51.65380859 C32.39155151 51.65785706 33.3592749 51.66190552 34.35632324 51.66607666 C35.25065063 51.65977234 36.14497803 51.65346802 37.06640625 51.64697266 C37.85535278 51.64538147 38.64429932 51.64379028 39.45715332 51.64215088 C41.62992845 51.55689882 41.62992845 51.55689882 43.39257812 49.38818359 C43.69773076 47.38302238 43.69773076 47.38302238 43.65136719 45.06201172 C43.65767151 44.16768433 43.66397583 43.27335693 43.67047119 42.35192871 C43.66642273 41.38420532 43.66237427 40.41648193 43.65820312 39.41943359 C43.66011658 38.42818481 43.66203003 37.43693604 43.66400146 36.41564941 C43.66536398 34.31746161 43.66166294 32.21926541 43.65332031 30.12109375 C43.64262183 26.90133814 43.65321349 23.68214051 43.66601562 20.46240234 C43.66469404 18.42724486 43.66213167 16.39208772 43.65820312 14.35693359 C43.66225159 13.38921021 43.66630005 12.42148682 43.67047119 11.42443848 C43.66416687 10.53011108 43.65786255 9.63578369 43.65136719 8.71435547 C43.649776 7.92540894 43.64818481 7.1364624 43.64654541 6.3236084 C43.56129335 4.15083327 43.56129335 4.15083327 41.39257812 2.38818359 C39.4349624 2.09005283 39.4349624 2.09005283 37.17407227 2.14526367 C36.30299332 2.14218704 35.43191437 2.13911041 34.53443909 2.13594055 C33.59172653 2.14312607 32.64901398 2.15031158 31.67773438 2.15771484 C30.22771278 2.15840218 30.22771278 2.15840218 28.74839783 2.15910339 C26.70147476 2.16212792 24.65455404 2.17002017 22.60766602 2.18237305 C19.47143408 2.2005886 16.33549797 2.20288303 13.19921875 2.20263672 C11.21288807 2.20755345 9.22655939 2.21338245 7.24023438 2.22021484 C5.82920189 2.22188408 5.82920189 2.22188408 4.3896637 2.22358704 C3.51543259 2.22996689 2.64120148 2.23634674 1.74047852 2.24291992 C0.97151749 2.24673172 0.20255646 2.25054352 -0.58970642 2.25447083 C-2.81358607 2.31645799 -2.81358607 2.31645799 -5.60742188 3.38818359 Z " fill="#737186" transform="translate(8.607421875,0.61181640625)"/>
<path d="M0 0 C12.87 0 25.74 0 39 0 C39 0.33 39 0.66 39 1 C36.36 1 33.72 1 31 1 C31 4.3 31 7.6 31 11 C27.33333333 11 23.66666667 11 20 11 C20 7.7 20 4.4 20 1 C17.69 1 15.38 1 13 1 C13 4.3 13 7.6 13 11 C11.35 11 9.7 11 8 11 C8 7.7 8 4.4 8 1 C5.36 1 2.72 1 0 1 C0 0.67 0 0.34 0 0 Z " fill="#B9AAA3" transform="translate(8,9)"/>
<path d="M0 0 C2.40055382 2.40055382 2.25501699 2.94383208 2.2746582 6.21850586 C2.28895622 7.52512428 2.28895622 7.52512428 2.30354309 8.85813904 C2.30263168 9.80085159 2.30172028 10.74356415 2.30078125 11.71484375 C2.30506638 12.68152481 2.3093515 13.64820587 2.31376648 14.6441803 C2.31951612 16.69108293 2.3200054 18.73800599 2.31567383 20.78491211 C2.31251619 23.92141513 2.33595722 27.05697324 2.36132812 30.19335938 C2.36360123 32.17968631 2.36430456 34.16601578 2.36328125 36.15234375 C2.372491 37.09303207 2.38170074 38.0337204 2.39118958 39.00291443 C2.38496078 39.87714554 2.37873199 40.75137665 2.37231445 41.65209961 C2.37294388 42.42106064 2.3735733 43.19002167 2.3742218 43.98228455 C1.88866231 46.60030648 1.16645143 47.47063201 -1 49 C-3.10710144 49.32279968 -3.10710144 49.32279968 -5.56323242 49.2487793 C-6.48396042 49.22853195 -7.40468842 49.20828461 -8.35331726 49.18742371 C-9.34402725 49.15006607 -10.33473724 49.11270844 -11.35546875 49.07421875 C-12.37224197 49.04777786 -13.3890152 49.02133698 -14.43659973 48.99409485 C-17.68749165 48.90625062 -20.93727678 48.79712817 -24.1875 48.6875 C-26.38993416 48.62424978 -28.59240854 48.56238345 -30.79492188 48.50195312 C-36.19718396 48.35069695 -41.59868972 48.18196149 -47 48 C-47 47.67 -47 47.34 -47 47 C-46.43845718 46.98969254 -45.87691437 46.97938507 -45.2983551 46.96876526 C-39.47506534 46.86092315 -33.65193736 46.74630792 -27.82885742 46.62768555 C-25.65311047 46.58426493 -23.47732786 46.54259529 -21.30151367 46.50268555 C-18.18136832 46.44515498 -15.06140367 46.38141177 -11.94140625 46.31640625 C-10.96224747 46.29969376 -9.98308868 46.28298126 -8.97425842 46.26576233 C-8.07340012 46.24581711 -7.17254181 46.22587189 -6.24438477 46.20532227 C-5.04858543 46.18200584 -5.04858543 46.18200584 -3.82862854 46.15821838 C-1.98148618 46.19599335 -1.98148618 46.19599335 -1 45 C-0.87790076 43.58882298 -0.82229128 42.17179541 -0.79467773 40.75561523 C-0.77473251 39.85475693 -0.75478729 38.95389862 -0.73423767 38.02574158 C-0.71752518 37.04658279 -0.70081268 36.06742401 -0.68359375 35.05859375 C-0.66281265 34.06118668 -0.64203156 33.0637796 -0.62062073 32.03614807 C-0.55501363 28.83667157 -0.49618866 25.63711018 -0.4375 22.4375 C-0.39432538 20.27407961 -0.35071145 18.11066794 -0.30664062 15.94726562 C-0.19932097 10.63160126 -0.09757573 5.31585166 0 0 Z " fill="#858497" transform="translate(52,5)"/>
<path d="M0 0 C0.33 0 0.66 0 1 0 C1 3.3 1 6.6 1 10 C2.65 10 4.3 10 6 10 C6 6.7 6 3.4 6 0 C8.31 0 10.62 0 13 0 C13 3.3 13 6.6 13 10 C14.32 9.67 15.64 9.34 17 9 C17.33 6.03 17.66 3.06 18 0 C18.33 0 18.66 0 19 0 C19 3.3 19 6.6 19 10 C20.65 10 22.3 10 24 10 C24 6.7 24 3.4 24 0 C24.33 0 24.66 0 25 0 C25 3.63 25 7.26 25 11 C16.75 11 8.5 11 0 11 C0 7.37 0 3.74 0 0 Z " fill="#6F6C7F" transform="translate(15,10)"/>
<path d="M0 0 C1.39671181 -0.01429802 1.39671181 -0.01429802 2.82164001 -0.02888489 C4.33414085 -0.02751778 4.33414085 -0.02751778 5.87719727 -0.02612305 C6.91046646 -0.03040817 7.94373566 -0.0346933 9.00831604 -0.03910828 C11.19645453 -0.04485863 13.38461214 -0.04534667 15.57275391 -0.04101562 C18.9265191 -0.03785788 22.27940076 -0.06129889 25.63305664 -0.08666992 C27.7561024 -0.088943 29.87915054 -0.08964637 32.00219727 -0.08862305 C33.00850693 -0.09783279 34.01481659 -0.10704254 35.05162048 -0.11653137 C35.98591385 -0.11030258 36.92020721 -0.10407379 37.8828125 -0.09765625 C38.70506821 -0.09828568 39.52732391 -0.0989151 40.37449646 -0.0995636 C42.97458664 0.35690441 43.8590193 1.26622696 45.50610352 3.2746582 C45.17610352 4.2646582 44.84610352 5.2546582 44.50610352 6.2746582 C44.50610352 5.6146582 44.50610352 4.9546582 44.50610352 4.2746582 C41.72111016 3.34632709 40.04942107 3.14825032 37.17407227 3.14526367 C36.30306885 3.14211151 35.43206543 3.13895935 34.53466797 3.13571167 C33.12834106 3.13874802 33.12834106 3.13874802 31.69360352 3.1418457 C30.24570435 3.14041061 30.24570435 3.14041061 28.76855469 3.13894653 C26.72761978 3.138266 24.6866827 3.14011146 22.64575195 3.14428711 C19.51842394 3.14963713 16.39123955 3.14433782 13.26391602 3.13793945 C11.28214486 3.13860026 9.3003738 3.13988147 7.31860352 3.1418457 C6.38105225 3.13982147 5.44350098 3.13779724 4.47753906 3.13571167 C3.60653564 3.13886383 2.73553223 3.14201599 1.83813477 3.14526367 C1.07218994 3.14605927 0.30624512 3.14685486 -0.48291016 3.14767456 C-3.66107487 3.34835963 -5.24094203 4.02170375 -7.49389648 6.2746582 C-6.50574815 1.33391655 -5.01348698 0.02811956 0 0 Z " fill="#535467" transform="translate(8.493896484375,0.725341796875)"/>
<path d="M0 0 C0.99 0 1.98 0 3 0 C3 7.59 3 15.18 3 23 C2.01 23 1.02 23 0 23 C0 15.41 0 7.82 0 0 Z " fill="#606078" transform="translate(9,10)"/>
<path d="M0 0 C1.32 0 2.64 0 4 0 C4 2.97 4 5.94 4 9 C2.68 9 1.36 9 0 9 C0 6.03 0 3.06 0 0 Z " fill="#EAC899" transform="translate(23,11)"/>
<path d="M0 0 C1.32 0 2.64 0 4 0 C4 2.64 4 5.28 4 8 C2.68 8 1.36 8 0 8 C0 5.36 0 2.72 0 0 Z " fill="#F6CF99" transform="translate(17,11)"/>
<path d="M0 0 C1.32 0 2.64 0 4 0 C4 2.64 4 5.28 4 8 C2.68 8 1.36 8 0 8 C0 5.36 0 2.72 0 0 Z " fill="#F6CF99" transform="translate(34,11)"/>
<path d="M0 0 C0.99 0 1.98 0 3 0 C3 2.64 3 5.28 3 8 C2.01 8 1.02 8 0 8 C0 5.36 0 2.72 0 0 Z " fill="#FED599" transform="translate(29,11)"/>
<path d="M0 0 C0.33 0 0.66 0 1 0 C1.08121924 1.60332791 1.13929134 3.20784026 1.1875 4.8125 C1.22230469 5.70582031 1.25710937 6.59914063 1.29296875 7.51953125 C0.95081002 10.41647515 0.24606427 11.22555028 -2 13 C-2.66 12.67 -3.32 12.34 -4 12 C-3.525625 11.505 -3.05125 11.01 -2.5625 10.5 C-0.37832093 7.00531349 -0.34086089 4.09033064 0 0 Z " fill="#42435B" transform="translate(53,41)"/>
</svg>
